<?xml version="1.0" encoding="iso-8859-1"?>
<!-- Generator: Adobe Illustrator 19.0.0, SVG Export Plug-In . SVG Version: 6.00 Build 0)  -->
<svg version="1.1" id="Capa_1" xmlns="http://www.w3.org/2000/svg" xmlns:xlink="http://www.w3.org/1999/xlink" x="0px" y="0px"
	 viewBox="0 0 512 512" style="enable-background:new 0 0 512 512;" xml:space="preserve">
<g>
	<g>
		<path d="M331,90V75c0-41.355-33.645-75-75-75c-41.355,0-75,33.645-75,75v15h40v30h-40v30h40v30h-40v30h40v30h-40v15
			c0,41.355,33.645,75,75,75c41.355,0,75-33.645,75-75v-15h-40v-30h40v-30h-40v-30h40v-30h-40V90H331z"/>
	</g>
</g>
<g>
	<g>
		<path d="M391,255v-15h-30v15c0,57.897-47.103,105-105,105c-57.897,0-105-47.103-105-105v-15h-30v15
			c0,69.369,52.594,126.676,120,134.162V482h-85v30h200v-30h-85v-92.838C338.406,381.676,391,324.369,391,255z"/>
	</g>
</g>
<g>
</g>
<g>
</g>
<g>
</g>
<g>
</g>
<g>
</g>
<g>
</g>
<g>
</g>
<g>
</g>
<g>
</g>
<g>
</g>
<g>
</g>
<g>
</g>
<g>
</g>
<g>
</g>
<g>
</g>
</svg>
